<svg xmlns="http://www.w3.org/2000/svg" width="32" height="32" viewBox="0 0 79.478 73.53">
  <path id="Icon_awesome-home" data-name="Icon awesome-home" d="M38.684,21.329,13.246,46.255v26.9a2.444,2.444,0,0,0,2.208,2.626l15.461-.048a2.447,2.447,0,0,0,2.2-2.626V57.4a2.444,2.444,0,0,1,2.208-2.626h8.83A2.444,2.444,0,0,1,46.357,57.4V73.1A2.9,2.9,0,0,0,47,74.961a2.047,2.047,0,0,0,1.563.772l15.456.051a2.444,2.444,0,0,0,2.208-2.626V46.237L40.8,21.329A1.479,1.479,0,0,0,38.684,21.329ZM78.866,38.271,67.331,26.959V4.223a1.833,1.833,0,0,0-1.656-1.97H57.949a1.833,1.833,0,0,0-1.656,1.97V16.142L43.941,4.051a5.83,5.83,0,0,0-8.416,0L.6,38.271a2.235,2.235,0,0,0-.221,2.774L3.9,46.134a1.6,1.6,0,0,0,1.12.71A1.484,1.484,0,0,0,6.23,46.4L38.684,14.6a1.479,1.479,0,0,1,2.111,0L73.25,46.4a1.482,1.482,0,0,0,2.332-.263L79.1,41.05a2.235,2.235,0,0,0,.368-1.448,2.1,2.1,0,0,0-.6-1.332Z" transform="translate(0.001 -2.254)" fill="#ff5454"/>
</svg>
