<svg xmlns="http://www.w3.org/2000/svg" width="52.295" height="73.53" viewBox="0 0 52.295 73.53">
  <path id="Icon_awesome-question" data-name="Icon awesome-question" d="M28.017,0C16.156,0,8.473,4.7,2.441,13.073a3.374,3.374,0,0,0,.769,4.721l6.411,4.7a3.651,3.651,0,0,0,4.942-.6c3.722-4.507,6.484-7.1,12.3-7.1,4.572,0,10.226,2.843,10.226,7.128,0,3.239-2.767,4.9-7.281,7.348-5.264,2.852-12.23,6.4-12.23,15.281v1.406A3.508,3.508,0,0,0,21.143,49.4h10.77a3.508,3.508,0,0,0,3.567-3.447v-.829c0-6.155,18.615-6.412,18.615-23.068C54.095,9.515,40.631,0,28.017,0ZM26.528,53.634a9.954,9.954,0,1,0,0,19.9,9.954,9.954,0,1,0,0-19.9Z" transform="translate(-1.8)"/>
</svg>
